<svg xmlns="http://www.w3.org/2000/svg" xmlns:xlink="http://www.w3.org/1999/xlink" width="500" zoomAndPan="magnify" viewBox="0 0 375 374.999991" height="500" preserveAspectRatio="xMidYMid meet" version="1.0"><defs><filter x="0%" y="0%" width="100%" height="100%" id="1179db35fb"><feColorMatrix values="0 0 0 0 1 0 0 0 0 1 0 0 0 0 1 0 0 0 1 0" color-interpolation-filters="sRGB"/></filter><g/><clipPath id="c8ba85549f"><path d="M 50.230469 175 L 93 175 L 93 187 L 50.230469 187 Z M 50.230469 175 " clip-rule="nonzero"/></clipPath><clipPath id="3d2097dcec"><path d="M 50.230469 173 L 92 173 L 92 183 L 50.230469 183 Z M 50.230469 173 " clip-rule="nonzero"/></clipPath><clipPath id="aea86db138"><path d="M 89 130.371094 L 123 130.371094 L 123 159 L 89 159 Z M 89 130.371094 " clip-rule="nonzero"/></clipPath><mask id="c8e65ee6a7"><g filter="url(#1179db35fb)"><rect x="-37.5" width="450" fill="#000000" y="-37.499999" height="449.999989" fill-opacity="0.48"/></g></mask><clipPath id="f087d412c5"><path d="M 0.121094 1 L 11.640625 1 L 11.640625 14.640625 L 0.121094 14.640625 Z M 0.121094 1 " clip-rule="nonzero"/></clipPath><clipPath id="9b0f89c8cb"><rect x="0" width="12" y="0" height="15"/></clipPath><mask id="29faf1a121"><g filter="url(#1179db35fb)"><rect x="-37.5" width="450" fill="#000000" y="-37.499999" height="449.999989" fill-opacity="0.48"/></g></mask><clipPath id="86bacc4319"><path d="M 0.679688 0.0390625 L 7.878906 0.0390625 L 7.878906 9.878906 L 0.679688 9.878906 Z M 0.679688 0.0390625 " clip-rule="nonzero"/></clipPath><clipPath id="d2c4d57c7d"><rect x="0" width="8" y="0" height="10"/></clipPath><mask id="c5ab46cfc5"><g filter="url(#1179db35fb)"><rect x="-37.5" width="450" fill="#000000" y="-37.499999" height="449.999989" fill-opacity="0.51"/></g></mask><clipPath id="eb7f0efc2e"><path d="M 0.761719 0.121094 L 11.800781 0.121094 L 11.800781 37.078125 L 0.761719 37.078125 Z M 0.761719 0.121094 " clip-rule="nonzero"/></clipPath><clipPath id="cead7c4b1c"><rect x="0" width="12" y="0" height="38"/></clipPath><clipPath id="44767dbfdc"><path d="M 70 229 L 191.230469 229 L 191.230469 244.371094 L 70 244.371094 Z M 70 229 " clip-rule="nonzero"/></clipPath></defs><rect x="-37.5" width="450" fill="#ffffff" y="-37.499999" height="449.999989" fill-opacity="1"/><rect x="-37.5" width="450" fill="#d8bf9f" y="-37.499999" height="449.999989" fill-opacity="1"/><path fill="#36eee0" d="M 66.148438 209.984375 C 66.148438 210.230469 66.097656 210.46875 66.003906 210.695312 C 65.910156 210.921875 65.777344 211.125 65.601562 211.300781 C 65.425781 211.472656 65.226562 211.609375 64.996094 211.703125 C 64.769531 211.796875 64.53125 211.84375 64.285156 211.84375 C 64.039062 211.84375 63.800781 211.796875 63.574219 211.703125 C 63.34375 211.609375 63.144531 211.472656 62.96875 211.300781 C 62.792969 211.125 62.660156 210.921875 62.566406 210.695312 C 62.46875 210.46875 62.421875 210.230469 62.421875 209.984375 C 62.421875 209.734375 62.46875 209.5 62.566406 209.269531 C 62.660156 209.042969 62.792969 208.839844 62.96875 208.667969 C 63.144531 208.492188 63.34375 208.359375 63.574219 208.261719 C 63.800781 208.167969 64.039062 208.121094 64.285156 208.121094 C 64.53125 208.121094 64.769531 208.167969 64.996094 208.261719 C 65.226562 208.359375 65.425781 208.492188 65.601562 208.667969 C 65.777344 208.839844 65.910156 209.042969 66.003906 209.269531 C 66.097656 209.5 66.148438 209.734375 66.148438 209.984375 Z M 66.148438 209.984375 " fill-opacity="1" fill-rule="nonzero"/><path fill="#36eee0" d="M 60.238281 192.3125 C 60.238281 192.5625 60.191406 192.796875 60.097656 193.027344 C 60 193.253906 59.867188 193.457031 59.691406 193.628906 C 59.519531 193.804688 59.316406 193.941406 59.089844 194.035156 C 58.859375 194.128906 58.621094 194.175781 58.375 194.175781 C 58.128906 194.175781 57.890625 194.128906 57.664062 194.035156 C 57.433594 193.941406 57.234375 193.804688 57.058594 193.628906 C 56.886719 193.457031 56.75 193.253906 56.65625 193.027344 C 56.5625 192.796875 56.515625 192.5625 56.515625 192.3125 C 56.515625 192.066406 56.5625 191.828125 56.65625 191.601562 C 56.75 191.375 56.886719 191.171875 57.058594 190.996094 C 57.234375 190.824219 57.433594 190.6875 57.664062 190.59375 C 57.890625 190.5 58.128906 190.453125 58.375 190.453125 C 58.621094 190.453125 58.859375 190.5 59.089844 190.59375 C 59.316406 190.6875 59.519531 190.824219 59.691406 190.996094 C 59.867188 191.171875 60 191.375 60.097656 191.601562 C 60.191406 191.828125 60.238281 192.066406 60.238281 192.3125 Z M 60.238281 192.3125 " fill-opacity="1" fill-rule="nonzero"/><path fill="#36eee0" d="M 95.890625 187.085938 C 95.449219 186 95.003906 184.921875 94.5625 183.839844 C 94.535156 183.523438 67.5 187.738281 65.679688 188.488281 C 63.820312 188.898438 63.644531 192.128906 65.902344 191.597656 C 68.125 190.707031 95.867188 186.753906 95.890625 187.089844 Z M 95.890625 187.085938 " fill-opacity="1" fill-rule="nonzero"/><path fill="#f652a0" d="M 105.527344 195.980469 C 124.953125 194.589844 144.4375 194.863281 163.769531 196.800781 C 163.769531 196.800781 161.351562 199.300781 160.597656 199.234375 C 160.230469 199.195312 146.765625 197.988281 133.371094 198.015625 C 119.976562 197.847656 106.648438 198.914062 106.660156 198.90625 C 106.28125 197.929688 105.902344 196.953125 105.527344 195.976562 Z M 105.527344 195.980469 " fill-opacity="1" fill-rule="nonzero"/><path fill="#004aad" d="M 118.019531 146.273438 C 118.34375 143.886719 120.980469 136.007812 120.9375 134.3125 C 132.953125 140.375 138.226562 147.640625 139.101562 156.800781 C 136.550781 156.671875 120.480469 156.734375 119.4375 156.886719 C 117.394531 153.992188 117.40625 148.59375 118.019531 146.273438 Z M 118.019531 146.273438 " fill-opacity="1" fill-rule="nonzero"/><path fill="#f652a0" d="M 142.96875 217.484375 C 138.519531 217.09375 121.03125 216.703125 104.328125 218.117188 C 87.613281 219.261719 71.6875 222.207031 70.117188 222.335938 C 69.289062 222.480469 67.347656 221.265625 67.601562 218.992188 C 68.488281 218.816406 87.257812 215.265625 106.074219 214.160156 C 124.878906 212.675781 143.730469 213.632812 144.5 213.726562 C 143.84375 214.898438 143.152344 216.296875 142.96875 217.488281 Z M 142.96875 217.484375 " fill-opacity="1" fill-rule="nonzero"/><path fill="#f652a0" d="M 99.621094 196.683594 C 92.925781 197.210938 82.023438 198.660156 72.679688 200.378906 C 63.332031 202.035156 55.546875 203.957031 54.902344 204.003906 C 53.511719 204.144531 51.867188 202.773438 52.320312 200.640625 C 53.398438 200.382812 64.285156 197.839844 75.242188 196.128906 C 86.191406 194.285156 97.207031 193.273438 98.238281 193.199219 C 98.75 194.386719 99.277344 195.761719 99.621094 196.683594 Z M 99.621094 196.683594 " fill-opacity="1" fill-rule="nonzero"/><path fill="#36eee0" d="M 97.394531 191.066406 C 96.277344 191.164062 85.816406 192.167969 75.570312 193.871094 C 65.320312 195.464844 55.285156 197.757812 54.769531 197.890625 C 53.726562 198.164062 52.554688 199.378906 52.320312 200.644531 C 53.886719 200.289062 64.984375 197.777344 75.921875 196.089844 C 86.847656 194.28125 97.617188 193.304688 98.234375 193.1875 C 98.023438 192.726562 97.699219 191.824219 97.390625 191.066406 Z M 97.394531 191.066406 " fill-opacity="1" fill-rule="nonzero"/><g clip-path="url(#c8ba85549f)"><path fill="#f652a0" d="M 92.730469 178.800781 C 80.746094 179.691406 53.765625 185.625 52.648438 186.019531 C 51.40625 186.128906 49.925781 184.667969 50.304688 182.476562 C 51.265625 182.238281 61.003906 179.894531 70.800781 178.210938 C 80.589844 176.425781 90.441406 175.300781 91.363281 175.21875 C 91.988281 176.375 92.414062 177.847656 92.730469 178.800781 Z M 92.730469 178.800781 " fill-opacity="1" fill-rule="nonzero"/></g><g clip-path="url(#3d2097dcec)"><path fill="#36eee0" d="M 90.574219 173.199219 C 89.578125 173.308594 80.226562 174.402344 71.070312 176.054688 C 61.90625 177.617188 52.941406 179.730469 52.480469 179.855469 C 51.550781 180.109375 50.507812 181.253906 50.304688 182.472656 C 51.625 182.15625 59.867188 180.210938 68.816406 178.640625 C 77.757812 177.003906 87.410156 175.738281 91.363281 175.214844 C 91.152344 174.816406 90.894531 173.945312 90.570312 173.195312 Z M 90.574219 173.199219 " fill-opacity="1" fill-rule="nonzero"/></g><path fill="#004aad" d="M 106.121094 212.378906 C 105.066406 210.882812 86.910156 164.695312 82.792969 154.265625 C 82.300781 152.976562 81.804688 151.601562 80.339844 151.820312 C 75.683594 152.464844 66.074219 154.191406 65.464844 154.195312 C 64.65625 154.152344 61.46875 152.183594 63.4375 150.484375 C 65.394531 149.832031 79.71875 147.4375 80.636719 147.472656 C 81.066406 147.449219 82.390625 147.234375 83.667969 147.023438 C 85.289062 146.757812 86.800781 147.605469 87.308594 149.058594 C 88.328125 151.960938 90.011719 156.667969 91.078125 159.039062 C 97.898438 175.804688 109.851562 206.855469 110.730469 209.148438 C 109.03125 209.972656 107.128906 211.558594 106.121094 212.378906 Z M 106.121094 212.378906 " fill-opacity="1" fill-rule="nonzero"/><path fill="#36eee0" d="M 177.925781 171.324219 C 177.714844 170.519531 177.519531 169.507812 177.242188 168.425781 C 177.148438 168.050781 177.039062 167.664062 176.921875 167.273438 C 176.890625 167.171875 176.855469 167.070312 176.824219 166.972656 C 176.691406 166.558594 176.542969 166.144531 176.371094 165.738281 C 176.34375 165.671875 176.320312 165.609375 176.289062 165.546875 C 176.261719 165.488281 176.238281 165.429688 176.210938 165.371094 C 175.9375 164.773438 175.613281 164.191406 175.226562 163.648438 C 174.183594 162.195312 172.671875 161.015625 170.386719 160.550781 C 167.996094 160.261719 149.09375 158.214844 130.410156 158.5 C 111.726562 158.433594 93.261719 160.703125 91.835938 160.917969 C 91.609375 160.351562 91.292969 159.496094 91.082031 159.039062 C 92.277344 158.886719 111.28125 156.597656 130.246094 156.722656 C 149.214844 156.472656 168.140625 158.628906 169.277344 158.71875 C 170.609375 158.792969 173.179688 159.703125 175.253906 161.539062 C 177.585938 163.59375 179.292969 166.816406 177.933594 171.324219 Z M 177.925781 171.324219 " fill-opacity="1" fill-rule="nonzero"/><path fill="#004aad" d="M 93.039062 163.890625 C 96.5625 163.695312 116.867188 161.726562 136.476562 162.226562 C 156.097656 162.34375 175.027344 164.933594 176.046875 164.996094 C 175.417969 163.894531 173.78125 160.898438 170.386719 160.507812 C 168.515625 160.253906 149.253906 158.144531 130.261719 158.464844 C 111.273438 158.40625 92.546875 160.78125 91.835938 160.878906 C 92.355469 162.171875 92.824219 163.34375 93.042969 163.890625 Z M 93.039062 163.890625 " fill-opacity="1" fill-rule="nonzero"/><path fill="#004aad" d="M 95.429688 169.921875 C 97.949219 169.601562 115.914062 167.773438 133.636719 168.058594 C 151.371094 168.035156 168.863281 170.121094 170.589844 170.386719 C 170.875 169.484375 171.011719 167.539062 170.652344 166.738281 C 167.335938 166.296875 148.972656 164.398438 131.042969 164.625 C 113.117188 164.535156 95.632812 166.574219 94.152344 166.710938 C 94.566406 167.75 95.125 169.160156 95.429688 169.921875 Z M 95.429688 169.921875 " fill-opacity="1" fill-rule="nonzero"/><path fill="#f652a0" d="M 177.925781 171.324219 C 177.375 173.929688 173.625 187.574219 171.550781 195.089844 C 171.550781 195.089844 171.550781 195.101562 171.550781 195.101562 L 171.550781 195.109375 C 170.949219 197.269531 170.496094 198.921875 170.292969 199.652344 C 169.382812 202.902344 165.339844 205.925781 160.097656 205.851562 C 157.484375 205.792969 145.601562 204.714844 133.929688 204.539062 C 122.265625 204.230469 110.816406 204.820312 109.160156 205.082031 C 108.757812 204.039062 108.257812 202.742188 107.875 201.75 C 108.832031 201.667969 121.285156 200.851562 133.75 201.085938 C 146.21875 201.15625 158.707031 202.28125 159.824219 202.363281 C 162.09375 202.503906 166.148438 200.691406 167.148438 196.542969 C 168.140625 192.375 173.75 173.53125 173.730469 171.566406 C 173.699219 169.589844 172.960938 167.410156 170.65625 166.738281 C 166.746094 166.21875 148.011719 164.351562 130.050781 164.617188 C 112.09375 164.5625 94.910156 166.648438 94.15625 166.710938 C 93.835938 165.90625 93.046875 163.929688 93.046875 163.929688 C 95.160156 163.738281 115.054688 161.644531 134.816406 162.128906 C 154.59375 162.210938 174.234375 164.867188 176.050781 165.035156 C 176.105469 165.140625 176.160156 165.253906 176.214844 165.371094 C 176.242188 165.429688 176.269531 165.484375 176.292969 165.546875 C 176.324219 165.609375 176.347656 165.671875 176.375 165.738281 C 176.535156 166.117188 176.6875 166.535156 176.832031 166.972656 C 176.863281 167.074219 176.894531 167.175781 176.925781 167.273438 C 177.042969 167.636719 177.152344 168.007812 177.253906 168.371094 C 177.574219 169.539062 177.820312 170.660156 177.929688 171.324219 Z M 177.925781 171.324219 " fill-opacity="1" fill-rule="nonzero"/><path fill="#004aad" d="M 99.570312 180.40625 C 122.371094 178.414062 145.292969 178.703125 167.984375 181.285156 C 168.324219 180.007812 168.667969 178.730469 169.007812 177.457031 C 145.542969 174.894531 121.839844 174.78125 98.273438 177.101562 C 98.707031 178.203125 99.140625 179.304688 99.570312 180.40625 Z M 99.570312 180.40625 " fill-opacity="1" fill-rule="nonzero"/><path fill="#f652a0" d="M 97.226562 174.449219 C 97.574219 175.332031 97.921875 176.21875 98.273438 177.101562 C 121.839844 174.78125 145.542969 174.894531 169.007812 177.457031 C 169.199219 176.519531 169.394531 175.578125 169.585938 174.644531 C 145.582031 172.023438 121.328125 171.964844 97.226562 174.449219 Z M 97.226562 174.449219 " fill-opacity="1" fill-rule="nonzero"/><path fill="#004aad" d="M 101.324219 184.875 C 123.144531 183.023438 145.058594 183.257812 166.773438 185.59375 C 166.773438 185.59375 165.539062 191.503906 165.058594 191.894531 C 164.601562 192.054688 149.304688 190.410156 134.085938 190.300781 C 118.875 189.941406 103.738281 191.117188 103.757812 191.113281 C 102.949219 189.03125 102.136719 186.949219 101.324219 184.875 Z M 101.324219 184.875 " fill-opacity="1" fill-rule="nonzero"/><path fill="#f652a0" d="M 102.238281 187.214844 C 123.585938 185.464844 145.023438 185.714844 166.269531 187.976562 C 166.472656 187.191406 166.675781 186.410156 166.882812 185.628906 C 145.132812 183.277344 123.179688 183.027344 101.324219 184.875 C 101.628906 185.65625 101.933594 186.4375 102.238281 187.214844 Z M 102.238281 187.214844 " fill-opacity="1" fill-rule="nonzero"/><path fill="#004aad" d="M 107.0625 201.800781 C 107.0625 201.800781 119.886719 200.933594 132.882812 201.179688 C 145.886719 201.246094 159.058594 202.4375 159.824219 202.367188 C 162.089844 202.535156 166.054688 200.628906 167.144531 196.542969 C 168.226562 192.441406 173.890625 172.796875 173.757812 171.449219 C 173.617188 170.097656 173.59375 167.511719 170.652344 166.738281 C 171.324219 168.71875 170.164062 171.828125 169.585938 174.640625 C 169 177.445312 164.597656 195.046875 163.753906 196.429688 C 162.589844 197.714844 161.320312 198.613281 160.578125 198.867188 C 160.222656 198.992188 146.785156 197.78125 133.292969 197.777344 C 119.808594 197.574219 106.273438 198.574219 105.828125 198.597656 C 106.21875 199.605469 107.066406 201.796875 107.066406 201.796875 Z M 107.0625 201.800781 " fill-opacity="1" fill-rule="nonzero"/><path fill="#36eee0" d="M 103.152344 205.464844 C 102.714844 204.371094 102.273438 203.277344 101.832031 202.1875 C 101.8125 201.871094 74.855469 205.441406 73.03125 206.144531 C 71.175781 206.511719 70.996094 209.742188 73.25 209.265625 C 75.476562 208.429688 103.132812 205.136719 103.152344 205.46875 Z M 103.152344 205.464844 " fill-opacity="1" fill-rule="nonzero"/><path fill="#36eee0" d="M 87.191406 165.800781 C 86.746094 164.730469 86.296875 163.660156 85.847656 162.59375 C 85.816406 162.277344 67.132812 165.304688 65.316406 166.109375 C 63.453125 166.574219 63.285156 169.808594 65.546875 169.210938 C 67.761719 168.253906 87.15625 165.464844 87.191406 165.796875 Z M 87.191406 165.800781 " fill-opacity="1" fill-rule="nonzero"/><g clip-path="url(#aea86db138)"><path fill="#004aad" d="M 93.644531 158.730469 C 88.894531 154.140625 90.191406 135.832031 89.863281 130.371094 C 103.082031 132.644531 119.179688 140.359375 122.578125 156.785156 C 118.164062 156.472656 95.347656 158.390625 93.644531 158.730469 Z M 93.644531 158.730469 " fill-opacity="1" fill-rule="nonzero"/></g><path fill="#36eee0" d="M 111.046875 157.289062 C 108.230469 152.714844 95.769531 136.542969 93.222656 134.375 C 106.316406 136.519531 117.160156 145.941406 119.4375 156.882812 C 117.191406 156.976562 111.042969 157.273438 111.046875 157.289062 Z M 111.046875 157.289062 " fill-opacity="1" fill-rule="nonzero"/><path fill="#f652a0" d="M 97.074219 158.398438 C 93.132812 151.402344 93.308594 144.214844 93.226562 134.441406 C 95.238281 136.183594 109.785156 153.972656 111.046875 157.289062 C 108.113281 157.453125 97.074219 158.351562 97.074219 158.398438 Z M 97.074219 158.398438 " fill-opacity="1" fill-rule="nonzero"/><path fill="#36eee0" d="M 130.777344 156.691406 C 129.511719 153.007812 124.382812 140.480469 122.695312 139.390625 C 122.921875 139.023438 123.0625 138.554688 123.125 138.34375 C 129.320312 141.917969 135.726562 146.980469 136.542969 156.714844 C 135.140625 156.699219 130.777344 156.679688 130.777344 156.691406 Z M 130.777344 156.691406 " fill-opacity="1" fill-rule="nonzero"/><path fill="#f652a0" d="M 122.566406 156.800781 C 123.851562 156.78125 129.410156 156.71875 130.78125 156.6875 C 129.726562 153.5 124.820312 141.105469 122.699219 139.386719 C 122.335938 141.261719 120.398438 149.308594 120.550781 150.664062 C 121.492188 152.964844 122.246094 155.019531 122.570312 156.800781 Z M 122.566406 156.800781 " fill-opacity="1" fill-rule="nonzero"/><path fill="#bcece0" d="M 104.664062 143.429688 C 106.019531 144.730469 111.957031 151.933594 113.152344 154.007812 C 114.125 155.492188 116.3125 155.679688 115.335938 153.183594 C 114.363281 150.671875 108.566406 143.382812 106.167969 142.308594 C 103.777344 141.222656 104.1875 142.953125 104.664062 143.429688 Z M 104.664062 143.429688 " fill-opacity="1" fill-rule="nonzero"/><path fill="#bcece0" d="M 129.613281 147.558594 C 130.183594 148.421875 132.019531 152.316406 132.445312 153.550781 C 132.757812 154.730469 134.363281 154.730469 134.082031 153.292969 C 133.804688 151.855469 132.050781 147.6875 130.941406 146.835938 C 129.832031 145.980469 129.179688 146.929688 129.613281 147.5625 Z M 129.613281 147.558594 " fill-opacity="1" fill-rule="nonzero"/><path fill="#bcece0" d="M 129.621094 144.679688 C 129.652344 145.226562 129.210938 145.675781 128.640625 145.683594 C 128.070312 145.6875 127.582031 145.246094 127.550781 144.699219 C 127.519531 144.152344 127.960938 143.699219 128.53125 143.695312 C 129.101562 143.691406 129.589844 144.132812 129.621094 144.679688 Z M 129.621094 144.679688 " fill-opacity="1" fill-rule="nonzero"/><g mask="url(#c8e65ee6a7)"><g transform="matrix(1, 0, 0, 1, 93, 144)"><g clip-path="url(#9b0f89c8cb)"><g clip-path="url(#f087d412c5)"><path fill="#004aad" d="M 4.074219 14.398438 C 1.464844 11.980469 0.144531 3.960938 0.488281 1.023438 C 1.582031 4.6875 7.6875 13.398438 11.472656 13.738281 C 9.671875 13.816406 4.074219 14.394531 4.074219 14.398438 Z M 4.074219 14.398438 " fill-opacity="1" fill-rule="nonzero"/></g></g></g></g><path fill="#f652a0" d="M 122.566406 156.800781 C 122.1875 154.917969 121.328125 148.148438 121.847656 146.628906 C 122.863281 149.914062 124.824219 155.796875 125.234375 156.746094 C 124.710938 156.75 122.570312 156.800781 122.570312 156.800781 Z M 122.566406 156.800781 " fill-opacity="1" fill-rule="nonzero"/><path fill="#004aad" d="M 153.640625 149.90625 C 153.238281 148.21875 150.816406 142.613281 150.71875 141.421875 C 142.832031 145.511719 139.664062 150.402344 139.730469 156.796875 C 141.519531 156.820312 152.726562 157.277344 153.449219 157.378906 C 154.652344 155.375 154.238281 151.554688 153.640625 149.90625 Z M 153.640625 149.90625 " fill-opacity="1" fill-rule="nonzero"/><path fill="#004aad" d="M 171.417969 159.003906 C 174.339844 155.734375 172.058594 142.636719 171.863281 138.738281 C 162.972656 140.5 152.40625 145.761719 151.261719 157.246094 C 154.328125 157.179688 170.242188 158.804688 171.417969 159.003906 Z M 171.417969 159.003906 " fill-opacity="1" fill-rule="nonzero"/><path fill="#36eee0" d="M 159.300781 157.8125 C 160.917969 154.652344 168.285156 143.210938 169.859375 141.617188 C 161.027344 143.210938 154.21875 149.703125 153.449219 157.378906 C 155.019531 157.496094 159.300781 157.808594 159.300781 157.8125 Z M 159.300781 157.8125 " fill-opacity="1" fill-rule="nonzero"/><path fill="#f652a0" d="M 169.03125 158.75 C 171.21875 153.777344 170.550781 148.636719 169.863281 141.664062 C 168.625 142.964844 159.9375 155.527344 159.300781 157.8125 C 161.347656 157.992188 169.035156 158.722656 169.03125 158.75 Z M 169.03125 158.75 " fill-opacity="1" fill-rule="nonzero"/><path fill="#36eee0" d="M 145.539062 156.972656 C 146.15625 154.425781 148.789062 145.722656 149.875 144.972656 C 149.691406 144.710938 149.5625 144.378906 149.503906 144.230469 C 145.46875 146.644531 141.367188 150.027344 141.511719 156.824219 C 142.496094 156.859375 145.539062 156.972656 145.539062 156.976562 Z M 145.539062 156.972656 " fill-opacity="1" fill-rule="nonzero"/><path fill="#f652a0" d="M 151.269531 157.257812 C 150.378906 157.214844 146.5 157.035156 145.539062 156.972656 C 146.042969 154.765625 148.535156 146.152344 149.875 144.96875 C 150.269531 146.296875 152.21875 152.007812 152.214844 152.964844 C 151.730469 154.570312 151.359375 156.003906 151.269531 157.253906 Z M 151.269531 157.257812 " fill-opacity="1" fill-rule="nonzero"/><path fill="#bcece0" d="M 162.671875 148.046875 C 161.835938 148.972656 158.273438 154.015625 157.597656 155.460938 C 157.035156 156.496094 155.535156 156.59375 156.023438 154.839844 C 156.511719 153.085938 159.976562 147.992188 161.546875 147.242188 C 163.113281 146.488281 162.960938 147.714844 162.671875 148.046875 Z M 162.671875 148.046875 " fill-opacity="1" fill-rule="nonzero"/><path fill="#bcece0" d="M 145.675781 150.582031 C 145.34375 151.171875 144.351562 153.867188 144.144531 154.71875 C 144.015625 155.539062 142.894531 155.492188 142.984375 154.492188 C 143.070312 153.488281 143.988281 150.609375 144.695312 150.035156 C 145.40625 149.460938 145.929688 150.144531 145.675781 150.578125 Z M 145.675781 150.582031 " fill-opacity="1" fill-rule="nonzero"/><path fill="#bcece0" d="M 145.457031 148.558594 C 145.476562 148.945312 145.816406 149.269531 146.214844 149.285156 C 146.613281 149.300781 146.917969 149.003906 146.898438 148.617188 C 146.878906 148.230469 146.542969 147.90625 146.144531 147.890625 C 145.746094 147.871094 145.4375 148.171875 145.457031 148.558594 Z M 145.457031 148.558594 " fill-opacity="1" fill-rule="nonzero"/><g mask="url(#29faf1a121)"><g transform="matrix(1, 0, 0, 1, 163, 149)"><g clip-path="url(#d2c4d57c7d)"><g clip-path="url(#86bacc4319)"><path fill="#004aad" d="M 6.273438 9.71875 C 7.167969 8.503906 7.949219 2.316406 7.488281 0.214844 C 7.195312 2.957031 3.289062 8.832031 0.878906 9.21875 C 2.132812 9.292969 7.75 9.792969 6.273438 9.71875 Z M 6.273438 9.71875 " fill-opacity="1" fill-rule="nonzero"/></g></g></g></g><path fill="#f652a0" d="M 151.269531 157.257812 C 151.394531 155.933594 151.488281 151.175781 151.015625 150.09375 C 150.554688 152.394531 149.628906 156.496094 149.414062 157.15625 C 149.777344 157.171875 151.273438 157.257812 151.269531 157.257812 Z M 151.269531 157.257812 " fill-opacity="1" fill-rule="nonzero"/><path fill="#004aad" d="M 119.867188 200.449219 C 118.59375 200.734375 117.320312 201.027344 116.042969 201.324219 C 112.554688 188.078125 109.035156 174.894531 105.480469 161.785156 C 106.769531 161.445312 108.054688 161.105469 109.34375 160.777344 C 112.886719 173.933594 116.394531 187.15625 119.867188 200.449219 Z M 119.867188 200.449219 " fill-opacity="1" fill-rule="nonzero"/><path fill="#004aad" d="M 130.960938 198.882812 C 129.652344 198.960938 128.34375 199.050781 127.039062 199.144531 C 125.4375 186.234375 123.820312 173.339844 122.1875 160.464844 C 123.507812 160.34375 124.828125 160.234375 126.148438 160.128906 C 127.765625 173.027344 129.371094 185.945312 130.960938 198.878906 Z M 130.960938 198.882812 " fill-opacity="1" fill-rule="nonzero"/><path fill="#004aad" d="M 154.550781 201.21875 C 155.847656 201.558594 157.144531 201.914062 158.4375 202.273438 C 160.5 188.992188 162.582031 175.71875 164.691406 162.457031 C 163.382812 162.082031 162.074219 161.710938 160.765625 161.347656 C 158.671875 174.628906 156.597656 187.917969 154.550781 201.21875 Z M 154.550781 201.21875 " fill-opacity="1" fill-rule="nonzero"/><path fill="#004aad" d="M 143.335938 199.148438 C 144.648438 199.289062 145.964844 199.433594 147.277344 199.585938 C 147.507812 186.644531 147.742188 173.699219 147.980469 160.753906 C 146.652344 160.601562 145.324219 160.460938 143.996094 160.324219 C 143.773438 173.269531 143.550781 186.210938 143.335938 199.148438 Z M 143.335938 199.148438 " fill-opacity="1" fill-rule="nonzero"/><path fill="#004aad" d="M 73.390625 154.734375 C 70.019531 155.308594 66.652344 155.933594 63.292969 156.605469 C 61.433594 156.980469 59.832031 156.011719 59.714844 154.421875 C 59.707031 154.3125 59.699219 154.203125 59.691406 154.09375 C 59.574219 152.503906 60.988281 150.890625 62.851562 150.511719 C 66.214844 149.832031 69.585938 149.199219 72.957031 148.617188 C 74.832031 148.292969 76.4375 149.34375 76.550781 150.945312 C 76.558594 151.058594 76.5625 151.167969 76.574219 151.277344 C 76.683594 152.878906 75.257812 154.414062 73.390625 154.734375 Z M 73.390625 154.734375 " fill-opacity="1" fill-rule="nonzero"/><path fill="#36eee0" d="M 85.773438 149.136719 C 77.449219 150.253906 69.15625 151.671875 60.902344 153.394531 C 60.902344 153.363281 60.898438 153.335938 60.894531 153.304688 C 60.835938 152.46875 61.574219 151.628906 62.554688 151.429688 C 69.636719 149.988281 76.746094 148.769531 83.882812 147.769531 C 84.867188 147.632812 85.710938 148.207031 85.765625 149.050781 C 85.765625 149.078125 85.773438 149.109375 85.773438 149.136719 Z M 85.773438 149.136719 " fill-opacity="1" fill-rule="nonzero"/><path fill="#004aad" d="M 164.265625 219.117188 C 146.738281 217.277344 129.082031 216.816406 111.445312 217.730469 C 107.984375 217.90625 105.027344 215.664062 104.839844 212.648438 C 104.828125 212.476562 104.816406 212.3125 104.808594 212.140625 C 124.027344 210.757812 143.300781 211.003906 162.425781 212.890625 C 164.585938 213.101562 166.398438 214.855469 166.484375 216.773438 C 166.492188 216.945312 166.496094 217.117188 166.503906 217.285156 C 166.554688 218.433594 165.550781 219.25 164.265625 219.113281 Z M 164.265625 219.117188 " fill-opacity="1" fill-rule="nonzero"/><path fill="#36eee0" d="M 69.636719 216.6875 C 69.160156 216.816406 88.214844 213.230469 107.449219 212.195312 C 126.675781 210.746094 146.085938 211.847656 146.046875 211.851562 C 145.558594 212.292969 144.894531 213.308594 144.5 213.726562 C 143.085938 213.742188 124.953125 212.863281 106.660156 214.238281 C 88.359375 215.269531 69.898438 218.558594 67.601562 218.992188 C 67.738281 217.683594 68.300781 217.015625 69.636719 216.6875 Z M 69.636719 216.6875 " fill-opacity="1" fill-rule="nonzero"/><path fill="#36eee0" d="M 161.03125 219.167969 C 161.070312 219.890625 161.039062 220.609375 160.941406 221.324219 C 160.839844 222.039062 160.671875 222.738281 160.4375 223.421875 C 160.203125 224.101562 159.902344 224.753906 159.542969 225.375 C 159.179688 225.996094 158.761719 226.574219 158.289062 227.113281 C 157.8125 227.648438 157.292969 228.136719 156.726562 228.566406 C 156.15625 229 155.550781 229.371094 154.910156 229.683594 C 154.269531 229.996094 153.605469 230.242188 152.917969 230.417969 C 152.230469 230.597656 151.53125 230.707031 150.820312 230.746094 C 150.113281 230.785156 149.40625 230.75 148.703125 230.648438 C 148 230.546875 147.3125 230.375 146.640625 230.132812 C 145.972656 229.890625 145.332031 229.585938 144.71875 229.21875 C 144.109375 228.847656 143.535156 228.421875 143.007812 227.941406 C 142.476562 227.457031 142 226.925781 141.574219 226.347656 C 141.148438 225.769531 140.78125 225.152344 140.472656 224.5 C 140.164062 223.847656 139.921875 223.171875 139.746094 222.472656 C 139.570312 221.773438 139.460938 221.0625 139.421875 220.339844 C 139.382812 219.617188 139.414062 218.898438 139.511719 218.183594 C 139.613281 217.46875 139.78125 216.769531 140.015625 216.089844 C 140.253906 215.40625 140.550781 214.757812 140.914062 214.136719 C 141.273438 213.515625 141.691406 212.933594 142.164062 212.398438 C 142.640625 211.859375 143.160156 211.375 143.730469 210.941406 C 144.296875 210.507812 144.902344 210.136719 145.542969 209.824219 C 146.183594 209.511719 146.847656 209.269531 147.535156 209.089844 C 148.222656 208.910156 148.921875 208.800781 149.632812 208.765625 C 150.339844 208.726562 151.046875 208.757812 151.75 208.859375 C 152.453125 208.964844 153.140625 209.136719 153.8125 209.375 C 154.480469 209.617188 155.125 209.921875 155.734375 210.292969 C 156.347656 210.660156 156.917969 211.085938 157.445312 211.570312 C 157.976562 212.050781 158.453125 212.582031 158.878906 213.164062 C 159.308594 213.742188 159.675781 214.355469 159.980469 215.007812 C 160.289062 215.660156 160.53125 216.335938 160.707031 217.035156 C 160.886719 217.738281 160.992188 218.449219 161.03125 219.167969 Z M 161.03125 219.167969 " fill-opacity="1" fill-rule="nonzero"/><path fill="#004aad" d="M 160.34375 219.855469 C 160.378906 220.535156 160.347656 221.210938 160.25 221.882812 C 160.152344 222.558594 159.988281 223.214844 159.761719 223.855469 C 159.53125 224.5 159.242188 225.113281 158.894531 225.699219 C 158.542969 226.28125 158.136719 226.828125 157.679688 227.335938 C 157.21875 227.84375 156.714844 228.300781 156.167969 228.707031 C 155.617188 229.117188 155.03125 229.46875 154.414062 229.761719 C 153.792969 230.054688 153.152344 230.289062 152.484375 230.457031 C 151.820312 230.625 151.144531 230.726562 150.460938 230.765625 C 149.773438 230.800781 149.089844 230.773438 148.410156 230.675781 C 147.730469 230.582031 147.066406 230.421875 146.421875 230.195312 C 145.773438 229.96875 145.152344 229.683594 144.5625 229.335938 C 143.972656 228.988281 143.421875 228.589844 142.910156 228.136719 C 142.398438 227.679688 141.9375 227.183594 141.527344 226.636719 C 141.117188 226.09375 140.761719 225.515625 140.464844 224.902344 C 140.167969 224.289062 139.9375 223.652344 139.765625 222.992188 C 139.597656 222.335938 139.492188 221.664062 139.457031 220.988281 C 139.417969 220.308594 139.449219 219.632812 139.546875 218.957031 C 139.644531 218.285156 139.808594 217.625 140.035156 216.984375 C 140.265625 216.34375 140.554688 215.730469 140.90625 215.144531 C 141.253906 214.558594 141.660156 214.011719 142.117188 213.507812 C 142.578125 213 143.082031 212.542969 143.632812 212.132812 C 144.179688 211.726562 144.765625 211.375 145.386719 211.082031 C 146.003906 210.785156 146.648438 210.554688 147.3125 210.386719 C 147.976562 210.21875 148.652344 210.113281 149.339844 210.078125 C 150.023438 210.039062 150.707031 210.070312 151.386719 210.164062 C 152.066406 210.261719 152.730469 210.421875 153.378906 210.648438 C 154.023438 210.875 154.644531 211.160156 155.234375 211.507812 C 155.824219 211.851562 156.375 212.253906 156.886719 212.707031 C 157.398438 213.160156 157.859375 213.660156 158.269531 214.203125 C 158.683594 214.746094 159.035156 215.328125 159.332031 215.941406 C 159.628906 216.554688 159.863281 217.1875 160.03125 217.847656 C 160.203125 218.507812 160.304688 219.175781 160.34375 219.855469 Z M 160.34375 219.855469 " fill-opacity="1" fill-rule="nonzero"/><path fill="#f652a0" d="M 157.183594 219.574219 C 157.207031 220.019531 157.1875 220.460938 157.125 220.902344 C 157.058594 221.339844 156.953125 221.769531 156.804688 222.191406 C 156.652344 222.609375 156.464844 223.007812 156.234375 223.390625 C 156.003906 223.773438 155.738281 224.128906 155.4375 224.460938 C 155.136719 224.792969 154.804688 225.089844 154.445312 225.359375 C 154.085938 225.625 153.703125 225.855469 153.296875 226.046875 C 152.890625 226.238281 152.46875 226.390625 152.03125 226.5 C 151.597656 226.609375 151.152344 226.679688 150.703125 226.703125 C 150.253906 226.726562 149.808594 226.707031 149.363281 226.644531 C 148.917969 226.582031 148.480469 226.476562 148.058594 226.332031 C 147.632812 226.183594 147.226562 225.996094 146.839844 225.769531 C 146.453125 225.542969 146.089844 225.28125 145.757812 224.984375 C 145.421875 224.691406 145.121094 224.363281 144.851562 224.007812 C 144.582031 223.652344 144.347656 223.273438 144.152344 222.875 C 143.960938 222.472656 143.808594 222.058594 143.695312 221.628906 C 143.585938 221.199219 143.515625 220.761719 143.492188 220.316406 C 143.46875 219.875 143.488281 219.433594 143.554688 218.992188 C 143.617188 218.550781 143.722656 218.121094 143.875 217.703125 C 144.023438 217.285156 144.214844 216.882812 144.445312 216.5 C 144.671875 216.117188 144.9375 215.761719 145.238281 215.429688 C 145.539062 215.101562 145.871094 214.800781 146.230469 214.535156 C 146.589844 214.269531 146.976562 214.039062 147.378906 213.847656 C 147.785156 213.652344 148.207031 213.503906 148.644531 213.390625 C 149.082031 213.28125 149.523438 213.214844 149.972656 213.191406 C 150.421875 213.164062 150.871094 213.183594 151.316406 213.246094 C 151.761719 213.308594 152.195312 213.414062 152.621094 213.5625 C 153.042969 213.710938 153.449219 213.898438 153.835938 214.121094 C 154.222656 214.347656 154.585938 214.609375 154.921875 214.90625 C 155.253906 215.203125 155.558594 215.527344 155.828125 215.882812 C 156.097656 216.238281 156.328125 216.617188 156.523438 217.019531 C 156.71875 217.417969 156.871094 217.835938 156.980469 218.265625 C 157.09375 218.695312 157.160156 219.132812 157.183594 219.574219 Z M 157.183594 219.574219 " fill-opacity="1" fill-rule="nonzero"/><path fill="#36eee0" d="M 155.398438 219.046875 C 155.417969 219.394531 155.40625 219.738281 155.359375 220.082031 C 155.3125 220.421875 155.234375 220.757812 155.121094 221.085938 C 155.011719 221.410156 154.871094 221.722656 154.703125 222.019531 C 154.535156 222.320312 154.335938 222.597656 154.113281 222.855469 C 153.894531 223.109375 153.648438 223.34375 153.382812 223.550781 C 153.113281 223.757812 152.832031 223.9375 152.53125 224.085938 C 152.230469 224.234375 151.917969 224.351562 151.59375 224.4375 C 151.269531 224.523438 150.941406 224.574219 150.609375 224.589844 C 150.277344 224.609375 149.945312 224.59375 149.613281 224.542969 C 149.285156 224.492188 148.960938 224.410156 148.644531 224.296875 C 148.332031 224.179688 148.027344 224.035156 147.742188 223.855469 C 147.453125 223.679688 147.1875 223.472656 146.9375 223.242188 C 146.6875 223.011719 146.464844 222.757812 146.261719 222.476562 C 146.0625 222.199219 145.890625 221.90625 145.742188 221.59375 C 145.597656 221.28125 145.484375 220.957031 145.402344 220.621094 C 145.316406 220.285156 145.265625 219.945312 145.25 219.597656 C 145.230469 219.25 145.242188 218.90625 145.289062 218.566406 C 145.335938 218.222656 145.414062 217.886719 145.527344 217.558594 C 145.636719 217.234375 145.777344 216.921875 145.945312 216.625 C 146.113281 216.328125 146.3125 216.050781 146.535156 215.792969 C 146.753906 215.535156 147 215.300781 147.265625 215.09375 C 147.535156 214.886719 147.816406 214.710938 148.117188 214.558594 C 148.417969 214.410156 148.730469 214.292969 149.054688 214.210938 C 149.378906 214.125 149.707031 214.070312 150.039062 214.054688 C 150.371094 214.035156 150.703125 214.050781 151.035156 214.101562 C 151.363281 214.152344 151.6875 214.234375 152.003906 214.351562 C 152.316406 214.464844 152.621094 214.613281 152.90625 214.789062 C 153.195312 214.964844 153.460938 215.171875 153.710938 215.402344 C 153.960938 215.632812 154.183594 215.890625 154.386719 216.167969 C 154.585938 216.445312 154.757812 216.738281 154.90625 217.050781 C 155.050781 217.367188 155.164062 217.691406 155.246094 218.023438 C 155.332031 218.359375 155.382812 218.703125 155.398438 219.046875 Z M 155.398438 219.046875 " fill-opacity="1" fill-rule="nonzero"/><path fill="#004aad" d="M 152.582031 220.003906 C 152.601562 220.300781 152.558594 220.589844 152.457031 220.867188 C 152.355469 221.148438 152.203125 221.398438 152 221.621094 C 151.800781 221.839844 151.5625 222.015625 151.289062 222.144531 C 151.015625 222.273438 150.726562 222.34375 150.425781 222.363281 C 150.125 222.378906 149.832031 222.335938 149.542969 222.238281 C 149.257812 222.140625 149.003906 221.992188 148.78125 221.792969 C 148.554688 221.597656 148.375 221.363281 148.246094 221.097656 C 148.117188 220.828125 148.042969 220.546875 148.027344 220.25 C 148.011719 219.953125 148.050781 219.664062 148.152344 219.386719 C 148.253906 219.105469 148.40625 218.855469 148.609375 218.632812 C 148.808594 218.414062 149.046875 218.238281 149.320312 218.109375 C 149.59375 217.980469 149.882812 217.90625 150.183594 217.890625 C 150.484375 217.875 150.78125 217.917969 151.066406 218.015625 C 151.351562 218.113281 151.605469 218.261719 151.832031 218.457031 C 152.054688 218.65625 152.234375 218.890625 152.363281 219.15625 C 152.496094 219.425781 152.566406 219.707031 152.582031 220.003906 Z M 152.582031 220.003906 " fill-opacity="1" fill-rule="nonzero"/><path fill="#bcece0" d="M 153.917969 216.191406 C 154.042969 216.324219 154.148438 216.46875 154.226562 216.625 C 154.308594 216.78125 154.363281 216.9375 154.386719 217.089844 C 154.410156 217.246094 154.402344 217.386719 154.367188 217.515625 C 154.332031 217.648438 154.269531 217.753906 154.175781 217.839844 C 154.085938 217.925781 153.976562 217.980469 153.84375 218.007812 C 153.710938 218.035156 153.570312 218.035156 153.417969 218 C 153.265625 217.964844 153.113281 217.902344 152.960938 217.8125 C 152.8125 217.722656 152.675781 217.609375 152.550781 217.476562 C 152.425781 217.34375 152.320312 217.199219 152.242188 217.042969 C 152.160156 216.886719 152.105469 216.730469 152.082031 216.578125 C 152.058594 216.421875 152.066406 216.28125 152.101562 216.148438 C 152.136719 216.019531 152.199219 215.914062 152.292969 215.828125 C 152.382812 215.742188 152.492188 215.6875 152.625 215.660156 C 152.757812 215.628906 152.898438 215.632812 153.050781 215.667969 C 153.203125 215.703125 153.355469 215.765625 153.507812 215.855469 C 153.65625 215.945312 153.792969 216.058594 153.917969 216.191406 Z M 153.917969 216.191406 " fill-opacity="1" fill-rule="nonzero"/><path fill="#36eee0" d="M 124.085938 218.339844 C 124.125 219.058594 124.097656 219.777344 123.996094 220.492188 C 123.894531 221.210938 123.726562 221.90625 123.492188 222.589844 C 123.257812 223.269531 122.960938 223.921875 122.597656 224.542969 C 122.234375 225.164062 121.816406 225.742188 121.34375 226.28125 C 120.871094 226.820312 120.347656 227.304688 119.78125 227.738281 C 119.210938 228.167969 118.609375 228.542969 117.96875 228.855469 C 117.328125 229.164062 116.664062 229.410156 115.972656 229.589844 C 115.285156 229.765625 114.585938 229.875 113.878906 229.914062 C 113.167969 229.953125 112.460938 229.921875 111.757812 229.816406 C 111.054688 229.714844 110.367188 229.542969 109.699219 229.300781 C 109.027344 229.0625 108.386719 228.757812 107.773438 228.386719 C 107.164062 228.019531 106.59375 227.59375 106.0625 227.109375 C 105.535156 226.625 105.054688 226.09375 104.628906 225.515625 C 104.203125 224.9375 103.835938 224.320312 103.527344 223.671875 C 103.21875 223.019531 102.976562 222.34375 102.800781 221.640625 C 102.625 220.941406 102.515625 220.230469 102.476562 219.507812 C 102.4375 218.789062 102.46875 218.070312 102.570312 217.351562 C 102.667969 216.636719 102.835938 215.941406 103.074219 215.257812 C 103.308594 214.578125 103.605469 213.925781 103.96875 213.304688 C 104.328125 212.683594 104.746094 212.101562 105.222656 211.566406 C 105.695312 211.027344 106.21875 210.542969 106.785156 210.109375 C 107.351562 209.675781 107.957031 209.304688 108.597656 208.992188 C 109.238281 208.683594 109.902344 208.4375 110.589844 208.257812 C 111.28125 208.082031 111.976562 207.972656 112.6875 207.933594 C 113.398438 207.894531 114.105469 207.925781 114.808594 208.03125 C 115.511719 208.132812 116.199219 208.304688 116.867188 208.546875 C 117.539062 208.785156 118.179688 209.089844 118.789062 209.460938 C 119.402344 209.828125 119.972656 210.253906 120.503906 210.738281 C 121.03125 211.222656 121.507812 211.753906 121.9375 212.332031 C 122.363281 212.910156 122.730469 213.523438 123.039062 214.175781 C 123.34375 214.828125 123.585938 215.503906 123.765625 216.207031 C 123.941406 216.90625 124.046875 217.617188 124.085938 218.339844 Z M 124.085938 218.339844 " fill-opacity="1" fill-rule="nonzero"/><path fill="#004aad" d="M 123.398438 219.023438 C 123.433594 219.703125 123.402344 220.378906 123.304688 221.054688 C 123.207031 221.726562 123.046875 222.382812 122.816406 223.027344 C 122.589844 223.667969 122.300781 224.28125 121.949219 224.867188 C 121.597656 225.453125 121.195312 226 120.734375 226.503906 C 120.277344 227.011719 119.773438 227.46875 119.222656 227.875 C 118.671875 228.285156 118.089844 228.636719 117.46875 228.929688 C 116.847656 229.226562 116.207031 229.457031 115.542969 229.625 C 114.875 229.792969 114.199219 229.898438 113.515625 229.933594 C 112.828125 229.972656 112.148438 229.941406 111.46875 229.847656 C 110.789062 229.75 110.125 229.589844 109.476562 229.363281 C 108.828125 229.136719 108.210938 228.851562 107.617188 228.503906 C 107.027344 228.160156 106.476562 227.757812 105.964844 227.304688 C 105.457031 226.851562 104.996094 226.351562 104.582031 225.808594 C 104.171875 225.261719 103.816406 224.683594 103.519531 224.070312 C 103.222656 223.457031 102.992188 222.820312 102.820312 222.164062 C 102.652344 221.503906 102.546875 220.835938 102.511719 220.15625 C 102.476562 219.476562 102.503906 218.800781 102.601562 218.125 C 102.699219 217.453125 102.863281 216.796875 103.09375 216.152344 C 103.320312 215.511719 103.609375 214.898438 103.960938 214.3125 C 104.3125 213.726562 104.714844 213.183594 105.175781 212.675781 C 105.632812 212.167969 106.136719 211.710938 106.6875 211.304688 C 107.238281 210.894531 107.820312 210.542969 108.441406 210.25 C 109.058594 209.957031 109.703125 209.722656 110.367188 209.554688 C 111.035156 209.386719 111.707031 209.28125 112.394531 209.246094 C 113.082031 209.207031 113.761719 209.238281 114.441406 209.335938 C 115.121094 209.429688 115.785156 209.589844 116.433594 209.816406 C 117.082031 210.042969 117.699219 210.328125 118.289062 210.675781 C 118.882812 211.019531 119.433594 211.421875 119.941406 211.875 C 120.453125 212.328125 120.914062 212.828125 121.328125 213.371094 C 121.738281 213.917969 122.09375 214.496094 122.386719 215.109375 C 122.683594 215.722656 122.917969 216.359375 123.089844 217.015625 C 123.257812 217.675781 123.359375 218.34375 123.398438 219.023438 Z M 123.398438 219.023438 " fill-opacity="1" fill-rule="nonzero"/><path fill="#f652a0" d="M 120.242188 218.746094 C 120.265625 219.1875 120.246094 219.628906 120.183594 220.070312 C 120.117188 220.507812 120.011719 220.9375 119.859375 221.359375 C 119.710938 221.777344 119.523438 222.179688 119.292969 222.5625 C 119.0625 222.941406 118.796875 223.300781 118.496094 223.628906 C 118.195312 223.960938 117.863281 224.261719 117.503906 224.527344 C 117.144531 224.792969 116.761719 225.023438 116.355469 225.214844 C 115.949219 225.40625 115.527344 225.558594 115.089844 225.667969 C 114.65625 225.78125 114.210938 225.847656 113.761719 225.871094 C 113.3125 225.894531 112.867188 225.875 112.421875 225.8125 C 111.976562 225.75 111.539062 225.644531 111.113281 225.5 C 110.691406 225.351562 110.285156 225.164062 109.898438 224.9375 C 109.511719 224.710938 109.148438 224.453125 108.816406 224.15625 C 108.480469 223.859375 108.179688 223.53125 107.910156 223.175781 C 107.636719 222.820312 107.40625 222.445312 107.210938 222.042969 C 107.019531 221.644531 106.867188 221.226562 106.753906 220.796875 C 106.644531 220.367188 106.574219 219.929688 106.550781 219.484375 C 106.527344 219.042969 106.546875 218.601562 106.613281 218.160156 C 106.675781 217.722656 106.78125 217.292969 106.933594 216.871094 C 107.082031 216.453125 107.273438 216.050781 107.5 215.671875 C 107.730469 215.289062 107.996094 214.929688 108.296875 214.601562 C 108.597656 214.269531 108.929688 213.96875 109.289062 213.703125 C 109.648438 213.4375 110.03125 213.207031 110.4375 213.015625 C 110.84375 212.824219 111.265625 212.671875 111.703125 212.5625 C 112.136719 212.449219 112.582031 212.382812 113.03125 212.359375 C 113.480469 212.335938 113.929688 212.355469 114.375 212.417969 C 114.820312 212.480469 115.253906 212.585938 115.679688 212.730469 C 116.101562 212.878906 116.507812 213.066406 116.894531 213.292969 C 117.28125 213.519531 117.644531 213.777344 117.980469 214.074219 C 118.3125 214.371094 118.617188 214.699219 118.886719 215.054688 C 119.15625 215.410156 119.386719 215.785156 119.582031 216.1875 C 119.777344 216.585938 119.929688 217.003906 120.039062 217.433594 C 120.152344 217.863281 120.21875 218.300781 120.242188 218.746094 Z M 120.242188 218.746094 " fill-opacity="1" fill-rule="nonzero"/><path fill="#36eee0" d="M 118.457031 218.21875 C 118.472656 218.5625 118.460938 218.90625 118.414062 219.25 C 118.367188 219.59375 118.289062 219.925781 118.179688 220.253906 C 118.066406 220.582031 117.929688 220.890625 117.757812 221.191406 C 117.589844 221.488281 117.394531 221.765625 117.171875 222.023438 C 116.949219 222.28125 116.703125 222.511719 116.4375 222.71875 C 116.171875 222.925781 115.886719 223.105469 115.585938 223.253906 C 115.285156 223.402344 114.972656 223.519531 114.648438 223.605469 C 114.328125 223.691406 114 223.742188 113.664062 223.761719 C 113.332031 223.777344 113 223.761719 112.667969 223.710938 C 112.339844 223.664062 112.015625 223.582031 111.703125 223.464844 C 111.386719 223.347656 111.085938 223.203125 110.796875 223.023438 C 110.511719 222.847656 110.242188 222.644531 109.992188 222.410156 C 109.742188 222.179688 109.519531 221.925781 109.316406 221.648438 C 109.117188 221.371094 108.945312 221.074219 108.800781 220.761719 C 108.65625 220.449219 108.539062 220.125 108.457031 219.789062 C 108.375 219.453125 108.324219 219.113281 108.304688 218.765625 C 108.285156 218.421875 108.300781 218.078125 108.347656 217.734375 C 108.394531 217.390625 108.472656 217.054688 108.582031 216.730469 C 108.691406 216.402344 108.832031 216.089844 109 215.792969 C 109.171875 215.496094 109.367188 215.21875 109.589844 214.960938 C 109.8125 214.703125 110.054688 214.472656 110.324219 214.265625 C 110.589844 214.054688 110.875 213.878906 111.175781 213.730469 C 111.476562 213.582031 111.785156 213.464844 112.109375 213.378906 C 112.433594 213.292969 112.761719 213.242188 113.09375 213.222656 C 113.429688 213.203125 113.761719 213.222656 114.089844 213.269531 C 114.421875 213.320312 114.742188 213.402344 115.058594 213.519531 C 115.375 213.632812 115.675781 213.78125 115.960938 213.957031 C 116.25 214.136719 116.519531 214.339844 116.765625 214.570312 C 117.015625 214.804688 117.242188 215.058594 117.441406 215.335938 C 117.640625 215.613281 117.816406 215.910156 117.960938 216.222656 C 118.105469 216.535156 118.21875 216.859375 118.300781 217.195312 C 118.386719 217.53125 118.4375 217.871094 118.457031 218.21875 Z M 118.457031 218.21875 " fill-opacity="1" fill-rule="nonzero"/><path fill="#004aad" d="M 115.640625 219.171875 C 115.65625 219.46875 115.613281 219.757812 115.511719 220.035156 C 115.410156 220.316406 115.261719 220.566406 115.058594 220.789062 C 114.855469 221.011719 114.617188 221.183594 114.34375 221.3125 C 114.070312 221.441406 113.785156 221.515625 113.480469 221.53125 C 113.179688 221.546875 112.886719 221.507812 112.601562 221.40625 C 112.316406 221.308594 112.058594 221.160156 111.835938 220.964844 C 111.609375 220.765625 111.433594 220.53125 111.300781 220.265625 C 111.171875 219.996094 111.097656 219.714844 111.082031 219.417969 C 111.066406 219.121094 111.109375 218.835938 111.210938 218.554688 C 111.308594 218.273438 111.460938 218.023438 111.664062 217.800781 C 111.867188 217.582031 112.105469 217.40625 112.378906 217.277344 C 112.648438 217.148438 112.9375 217.078125 113.238281 217.058594 C 113.542969 217.042969 113.835938 217.085938 114.121094 217.183594 C 114.40625 217.28125 114.660156 217.429688 114.886719 217.628906 C 115.113281 217.824219 115.289062 218.058594 115.417969 218.328125 C 115.550781 218.59375 115.625 218.875 115.640625 219.171875 Z M 115.640625 219.171875 " fill-opacity="1" fill-rule="nonzero"/><path fill="#bcece0" d="M 116.976562 215.363281 C 117.101562 215.496094 117.207031 215.640625 117.285156 215.796875 C 117.367188 215.953125 117.417969 216.109375 117.441406 216.261719 C 117.46875 216.417969 117.460938 216.558594 117.425781 216.6875 C 117.390625 216.820312 117.324219 216.925781 117.234375 217.011719 C 117.144531 217.097656 117.03125 217.152344 116.902344 217.179688 C 116.769531 217.207031 116.625 217.207031 116.472656 217.171875 C 116.320312 217.136719 116.171875 217.074219 116.019531 216.984375 C 115.871094 216.894531 115.730469 216.78125 115.605469 216.648438 C 115.480469 216.515625 115.378906 216.371094 115.296875 216.214844 C 115.21875 216.058594 115.164062 215.902344 115.140625 215.75 C 115.117188 215.59375 115.121094 215.453125 115.160156 215.324219 C 115.195312 215.191406 115.257812 215.085938 115.347656 215 C 115.441406 214.914062 115.550781 214.859375 115.683594 214.832031 C 115.816406 214.804688 115.957031 214.804688 116.109375 214.839844 C 116.261719 214.875 116.414062 214.9375 116.5625 215.027344 C 116.714844 215.117188 116.851562 215.230469 116.976562 215.363281 Z M 116.976562 215.363281 " fill-opacity="1" fill-rule="nonzero"/><path fill="#004aad" d="M 65.617188 155.753906 C 65.617188 156.011719 65.570312 156.257812 65.472656 156.492188 C 65.375 156.730469 65.234375 156.9375 65.054688 157.117188 C 64.871094 157.300781 64.664062 157.4375 64.425781 157.535156 C 64.191406 157.636719 63.945312 157.683594 63.6875 157.683594 C 63.433594 157.683594 63.1875 157.636719 62.949219 157.535156 C 62.714844 157.4375 62.503906 157.300781 62.324219 157.117188 C 62.144531 156.9375 62.003906 156.730469 61.90625 156.492188 C 61.808594 156.257812 61.757812 156.011719 61.757812 155.753906 C 61.757812 155.5 61.808594 155.253906 61.90625 155.015625 C 62.003906 154.78125 62.144531 154.570312 62.324219 154.390625 C 62.503906 154.210938 62.714844 154.070312 62.949219 153.972656 C 63.1875 153.875 63.433594 153.824219 63.6875 153.824219 C 63.945312 153.824219 64.191406 153.875 64.425781 153.972656 C 64.664062 154.070312 64.871094 154.210938 65.054688 154.390625 C 65.234375 154.570312 65.375 154.78125 65.472656 155.015625 C 65.570312 155.253906 65.617188 155.5 65.617188 155.753906 Z M 65.617188 155.753906 " fill-opacity="1" fill-rule="nonzero"/><path fill="#004aad" d="M 70.195312 154.769531 C 70.195312 155.023438 70.148438 155.269531 70.050781 155.507812 C 69.953125 155.742188 69.8125 155.953125 69.632812 156.132812 C 69.449219 156.3125 69.242188 156.453125 69.003906 156.550781 C 68.769531 156.648438 68.523438 156.699219 68.265625 156.699219 C 68.011719 156.699219 67.765625 156.648438 67.527344 156.550781 C 67.292969 156.453125 67.082031 156.3125 66.902344 156.132812 C 66.722656 155.953125 66.582031 155.742188 66.484375 155.507812 C 66.386719 155.269531 66.335938 155.023438 66.335938 154.769531 C 66.335938 154.511719 66.386719 154.265625 66.484375 154.03125 C 66.582031 153.792969 66.722656 153.585938 66.902344 153.40625 C 67.082031 153.222656 67.292969 153.085938 67.527344 152.988281 C 67.765625 152.886719 68.011719 152.839844 68.265625 152.839844 C 68.523438 152.839844 68.769531 152.886719 69.003906 152.988281 C 69.242188 153.085938 69.449219 153.222656 69.632812 153.40625 C 69.8125 153.585938 69.953125 153.792969 70.050781 154.03125 C 70.148438 154.265625 70.195312 154.511719 70.195312 154.769531 Z M 70.195312 154.769531 " fill-opacity="1" fill-rule="nonzero"/><path fill="#004aad" d="M 74.875 153.980469 C 74.875 154.234375 74.828125 154.480469 74.730469 154.71875 C 74.632812 154.953125 74.492188 155.164062 74.3125 155.34375 C 74.128906 155.523438 73.921875 155.664062 73.683594 155.761719 C 73.449219 155.859375 73.203125 155.910156 72.945312 155.910156 C 72.691406 155.910156 72.445312 155.859375 72.207031 155.761719 C 71.972656 155.664062 71.761719 155.523438 71.582031 155.34375 C 71.402344 155.164062 71.261719 154.953125 71.164062 154.71875 C 71.066406 154.480469 71.015625 154.234375 71.015625 153.980469 C 71.015625 153.722656 71.066406 153.476562 71.164062 153.242188 C 71.261719 153.003906 71.402344 152.796875 71.582031 152.613281 C 71.761719 152.433594 71.972656 152.292969 72.207031 152.195312 C 72.445312 152.097656 72.691406 152.050781 72.945312 152.050781 C 73.203125 152.050781 73.449219 152.097656 73.683594 152.195312 C 73.921875 152.292969 74.128906 152.433594 74.3125 152.613281 C 74.492188 152.796875 74.632812 153.003906 74.730469 153.242188 C 74.828125 153.476562 74.875 153.722656 74.875 153.980469 Z M 74.875 153.980469 " fill-opacity="1" fill-rule="nonzero"/><g mask="url(#c5ab46cfc5)"><g transform="matrix(1, 0, 0, 1, 167, 159)"><g clip-path="url(#cead7c4b1c)"><g clip-path="url(#eb7f0efc2e)"><path fill="#bcece0" d="M 11.070312 13.359375 C 10.480469 15.960938 6.503906 29.539062 4.308594 37.019531 C 4.308594 37.027344 4.304688 37.03125 4.304688 37.03125 C 4.304688 37.03125 4.304688 37.027344 4.304688 37.019531 C 4.480469 36.324219 10.070312 14.066406 10.433594 10.453125 C 10.4375 10.4375 10.4375 10.417969 10.441406 10.402344 C 11.234375 3.109375 4.011719 1.191406 0.953125 0.425781 C 0.953125 0.425781 5.40625 0.222656 8.179688 2.855469 C 10.476562 4.949219 12.589844 8.253906 11.070312 13.363281 Z M 11.070312 13.359375 " fill-opacity="1" fill-rule="nonzero"/></g></g></g></g><path fill="#f652a0" d="M 90.511719 161.082031 L 108.6875 207.398438 L 93.808594 172.695312 Z M 90.511719 161.082031 " fill-opacity="1" fill-rule="nonzero"/><path fill="#004aad" d="M 183.9375 238.578125 C 183.9375 238.578125 147.757812 231.847656 113.726562 235.769531 C 99.304688 237.433594 85.980469 240.03125 74.867188 243.148438 C 78.351562 234.859375 102.144531 228.441406 130.972656 228.441406 C 157.664062 228.441406 183.9375 238.582031 183.9375 238.582031 Z M 183.9375 238.578125 " fill-opacity="1" fill-rule="nonzero"/><g clip-path="url(#44767dbfdc)"><path fill="#f652a0" d="M 191.515625 242.816406 C 181.742188 235.859375 149.835938 233.328125 112.722656 237.253906 C 96.992188 238.917969 82.460938 241.515625 70.34375 244.628906 C 74.148438 236.339844 100.089844 229.925781 131.535156 229.925781 C 160.640625 229.925781 185.039062 235.421875 191.519531 242.816406 Z M 191.515625 242.816406 " fill-opacity="1" fill-rule="nonzero"/></g><g fill="#004aad" fill-opacity="1"><g transform="translate(193.890402, 181.135798)"><g><path d="M 15.296875 -17.4375 C 15.296875 -18.445312 14.90625 -19.320312 14.125 -20.0625 C 13.34375 -20.800781 12.25 -21.171875 10.84375 -21.171875 C 9.644531 -21.171875 8.695312 -20.925781 8 -20.4375 C 7.3125 -19.945312 6.96875 -19.285156 6.96875 -18.453125 C 6.96875 -18.015625 7.050781 -17.625 7.21875 -17.28125 C 7.382812 -16.9375 7.675781 -16.625 8.09375 -16.34375 C 8.507812 -16.070312 9.054688 -15.828125 9.734375 -15.609375 C 10.421875 -15.398438 11.289062 -15.195312 12.34375 -15 C 14.976562 -14.519531 16.988281 -13.71875 18.375 -12.59375 C 19.757812 -11.46875 20.453125 -9.804688 20.453125 -7.609375 L 20.453125 -7.171875 C 20.453125 -6.003906 20.242188 -4.945312 19.828125 -4 C 19.410156 -3.050781 18.804688 -2.242188 18.015625 -1.578125 C 17.222656 -0.910156 16.265625 -0.394531 15.140625 -0.03125 C 14.015625 0.320312 12.75 0.5 11.34375 0.5 C 9.6875 0.5 8.226562 0.269531 6.96875 -0.1875 C 5.71875 -0.65625 4.671875 -1.300781 3.828125 -2.125 C 2.992188 -2.957031 2.363281 -3.929688 1.9375 -5.046875 C 1.507812 -6.160156 1.296875 -7.375 1.296875 -8.6875 L 1.296875 -9.765625 L 6.03125 -9.765625 L 6.03125 -8.90625 C 6.03125 -7.394531 6.46875 -6.191406 7.34375 -5.296875 C 8.21875 -4.398438 9.570312 -3.953125 11.40625 -3.953125 C 12.84375 -3.953125 13.90625 -4.257812 14.59375 -4.875 C 15.289062 -5.5 15.640625 -6.242188 15.640625 -7.109375 C 15.640625 -7.515625 15.566406 -7.898438 15.421875 -8.265625 C 15.285156 -8.640625 15.035156 -8.972656 14.671875 -9.265625 C 14.316406 -9.566406 13.828125 -9.835938 13.203125 -10.078125 C 12.585938 -10.316406 11.800781 -10.523438 10.84375 -10.703125 C 9.570312 -10.910156 8.410156 -11.1875 7.359375 -11.53125 C 6.304688 -11.882812 5.390625 -12.347656 4.609375 -12.921875 C 3.835938 -13.492188 3.234375 -14.207031 2.796875 -15.0625 C 2.367188 -15.925781 2.15625 -16.984375 2.15625 -18.234375 L 2.15625 -18.453125 C 2.15625 -19.472656 2.363281 -20.421875 2.78125 -21.296875 C 3.195312 -22.171875 3.78125 -22.929688 4.53125 -23.578125 C 5.289062 -24.222656 6.203125 -24.722656 7.265625 -25.078125 C 8.328125 -25.441406 9.519531 -25.625 10.84375 -25.625 C 12.320312 -25.625 13.632812 -25.414062 14.78125 -25 C 15.9375 -24.582031 16.898438 -24.015625 17.671875 -23.296875 C 18.453125 -22.578125 19.039062 -21.75 19.4375 -20.8125 C 19.832031 -19.882812 20.03125 -18.90625 20.03125 -17.875 L 20.03125 -16.578125 L 15.296875 -16.578125 Z M 15.296875 -17.4375 "/></g></g></g><g fill="#004aad" fill-opacity="1"><g transform="translate(214.594434, 181.135798)"><g><path d="M 7.390625 0 L 2.875 0 L 2.875 -25.125 L 7.390625 -25.125 L 7.390625 -14.9375 L 8.046875 -14.9375 C 8.492188 -16.007812 9.160156 -16.835938 10.046875 -17.421875 C 10.929688 -18.003906 12.019531 -18.296875 13.3125 -18.296875 C 14.195312 -18.296875 15.007812 -18.148438 15.75 -17.859375 C 16.5 -17.578125 17.144531 -17.148438 17.6875 -16.578125 C 18.238281 -16.003906 18.671875 -15.269531 18.984375 -14.375 C 19.296875 -13.476562 19.453125 -12.421875 19.453125 -11.203125 L 19.453125 0 L 14.9375 0 L 14.9375 -10.125 C 14.9375 -11.382812 14.628906 -12.378906 14.015625 -13.109375 C 13.398438 -13.847656 12.519531 -14.21875 11.375 -14.21875 C 10.039062 -14.21875 9.039062 -13.765625 8.375 -12.859375 C 7.71875 -11.960938 7.390625 -10.765625 7.390625 -9.265625 Z M 7.390625 0 "/></g></g></g><g fill="#004aad" fill-opacity="1"><g transform="translate(235.298465, 181.135798)"><g><path d="M 20.25 -8.6875 C 20.25 -7.195312 19.992188 -5.882812 19.484375 -4.75 C 18.984375 -3.613281 18.300781 -2.65625 17.4375 -1.875 C 16.582031 -1.101562 15.597656 -0.515625 14.484375 -0.109375 C 13.367188 0.296875 12.203125 0.5 10.984375 0.5 C 9.765625 0.5 8.597656 0.296875 7.484375 -0.109375 C 6.367188 -0.515625 5.378906 -1.101562 4.515625 -1.875 C 3.660156 -2.65625 2.976562 -3.613281 2.46875 -4.75 C 1.96875 -5.882812 1.71875 -7.195312 1.71875 -8.6875 L 1.71875 -9.109375 C 1.71875 -10.578125 1.96875 -11.878906 2.46875 -13.015625 C 2.976562 -14.148438 3.660156 -15.109375 4.515625 -15.890625 C 5.378906 -16.679688 6.367188 -17.28125 7.484375 -17.6875 C 8.597656 -18.09375 9.765625 -18.296875 10.984375 -18.296875 C 12.203125 -18.296875 13.367188 -18.09375 14.484375 -17.6875 C 15.597656 -17.28125 16.582031 -16.679688 17.4375 -15.890625 C 18.300781 -15.109375 18.984375 -14.148438 19.484375 -13.015625 C 19.992188 -11.878906 20.25 -10.578125 20.25 -9.109375 Z M 10.984375 -3.796875 C 11.628906 -3.796875 12.238281 -3.90625 12.8125 -4.125 C 13.382812 -4.34375 13.882812 -4.65625 14.3125 -5.0625 C 14.75 -5.46875 15.09375 -5.960938 15.34375 -6.546875 C 15.59375 -7.128906 15.71875 -7.796875 15.71875 -8.546875 L 15.71875 -9.265625 C 15.71875 -10.003906 15.59375 -10.664062 15.34375 -11.25 C 15.09375 -11.832031 14.75 -12.328125 14.3125 -12.734375 C 13.882812 -13.140625 13.382812 -13.453125 12.8125 -13.671875 C 12.238281 -13.890625 11.628906 -14 10.984375 -14 C 10.335938 -14 9.726562 -13.890625 9.15625 -13.671875 C 8.582031 -13.453125 8.078125 -13.140625 7.640625 -12.734375 C 7.210938 -12.328125 6.875 -11.832031 6.625 -11.25 C 6.375 -10.664062 6.25 -10.003906 6.25 -9.265625 L 6.25 -8.546875 C 6.25 -7.796875 6.375 -7.128906 6.625 -6.546875 C 6.875 -5.960938 7.210938 -5.46875 7.640625 -5.0625 C 8.078125 -4.65625 8.582031 -4.34375 9.15625 -4.125 C 9.726562 -3.90625 10.335938 -3.796875 10.984375 -3.796875 Z M 10.984375 -3.796875 "/></g></g></g><g fill="#004aad" fill-opacity="1"><g transform="translate(256.002496, 181.135798)"><g><path d="M 6.390625 7.171875 L 1.859375 7.171875 L 1.859375 -17.796875 L 6.390625 -17.796875 L 6.390625 -15.21875 L 7.03125 -15.21875 C 7.507812 -16.195312 8.203125 -16.953125 9.109375 -17.484375 C 10.023438 -18.023438 11.1875 -18.296875 12.59375 -18.296875 C 13.644531 -18.296875 14.644531 -18.09375 15.59375 -17.6875 C 16.539062 -17.28125 17.363281 -16.6875 18.0625 -15.90625 C 18.769531 -15.132812 19.332031 -14.1875 19.75 -13.0625 C 20.175781 -11.9375 20.390625 -10.65625 20.390625 -9.21875 L 20.390625 -8.578125 C 20.390625 -7.117188 20.1875 -5.828125 19.78125 -4.703125 C 19.375 -3.578125 18.820312 -2.625 18.125 -1.84375 C 17.425781 -1.070312 16.601562 -0.488281 15.65625 -0.09375 C 14.71875 0.300781 13.695312 0.5 12.59375 0.5 C 11.78125 0.5 11.070312 0.414062 10.46875 0.25 C 9.875 0.0820312 9.351562 -0.140625 8.90625 -0.421875 C 8.46875 -0.710938 8.097656 -1.039062 7.796875 -1.40625 C 7.503906 -1.78125 7.25 -2.171875 7.03125 -2.578125 L 6.390625 -2.578125 Z M 11.125 -3.796875 C 12.539062 -3.796875 13.679688 -4.234375 14.546875 -5.109375 C 15.421875 -5.984375 15.859375 -7.175781 15.859375 -8.6875 L 15.859375 -9.109375 C 15.859375 -10.617188 15.421875 -11.8125 14.546875 -12.6875 C 13.679688 -13.5625 12.539062 -14 11.125 -14 C 9.71875 -14 8.578125 -13.550781 7.703125 -12.65625 C 6.828125 -11.757812 6.390625 -10.578125 6.390625 -9.109375 L 6.390625 -8.6875 C 6.390625 -7.226562 6.828125 -6.046875 7.703125 -5.140625 C 8.578125 -4.242188 9.71875 -3.796875 11.125 -3.796875 Z M 11.125 -3.796875 "/></g></g></g><g fill="#004aad" fill-opacity="1"><g transform="translate(193.890402, 214.885795)"><g><path d="M 14.390625 -2.375 L 15.03125 -2.375 L 15.03125 -25.125 L 19.78125 -25.125 L 19.78125 0 L 10.515625 0 L 7.578125 -22.75 L 6.921875 -22.75 L 6.921875 0 L 2.1875 0 L 2.1875 -25.125 L 11.453125 -25.125 Z M 14.390625 -2.375 "/></g></g></g><g fill="#004aad" fill-opacity="1"><g transform="translate(214.594434, 214.885795)"><g><path d="M 20.25 -8.6875 C 20.25 -7.195312 19.992188 -5.882812 19.484375 -4.75 C 18.984375 -3.613281 18.300781 -2.65625 17.4375 -1.875 C 16.582031 -1.101562 15.597656 -0.515625 14.484375 -0.109375 C 13.367188 0.296875 12.203125 0.5 10.984375 0.5 C 9.765625 0.5 8.597656 0.296875 7.484375 -0.109375 C 6.367188 -0.515625 5.378906 -1.101562 4.515625 -1.875 C 3.660156 -2.65625 2.976562 -3.613281 2.46875 -4.75 C 1.96875 -5.882812 1.71875 -7.195312 1.71875 -8.6875 L 1.71875 -9.109375 C 1.71875 -10.578125 1.96875 -11.878906 2.46875 -13.015625 C 2.976562 -14.148438 3.660156 -15.109375 4.515625 -15.890625 C 5.378906 -16.679688 6.367188 -17.28125 7.484375 -17.6875 C 8.597656 -18.09375 9.765625 -18.296875 10.984375 -18.296875 C 12.203125 -18.296875 13.367188 -18.09375 14.484375 -17.6875 C 15.597656 -17.28125 16.582031 -16.679688 17.4375 -15.890625 C 18.300781 -15.109375 18.984375 -14.148438 19.484375 -13.015625 C 19.992188 -11.878906 20.25 -10.578125 20.25 -9.109375 Z M 10.984375 -3.796875 C 11.628906 -3.796875 12.238281 -3.90625 12.8125 -4.125 C 13.382812 -4.34375 13.882812 -4.65625 14.3125 -5.0625 C 14.75 -5.46875 15.09375 -5.960938 15.34375 -6.546875 C 15.59375 -7.128906 15.71875 -7.796875 15.71875 -8.546875 L 15.71875 -9.265625 C 15.71875 -10.003906 15.59375 -10.664062 15.34375 -11.25 C 15.09375 -11.832031 14.75 -12.328125 14.3125 -12.734375 C 13.882812 -13.140625 13.382812 -13.453125 12.8125 -13.671875 C 12.238281 -13.890625 11.628906 -14 10.984375 -14 C 10.335938 -14 9.726562 -13.890625 9.15625 -13.671875 C 8.582031 -13.453125 8.078125 -13.140625 7.640625 -12.734375 C 7.210938 -12.328125 6.875 -11.832031 6.625 -11.25 C 6.375 -10.664062 6.25 -10.003906 6.25 -9.265625 L 6.25 -8.546875 C 6.25 -7.796875 6.375 -7.128906 6.625 -6.546875 C 6.875 -5.960938 7.210938 -5.46875 7.640625 -5.0625 C 8.078125 -4.65625 8.582031 -4.34375 9.15625 -4.125 C 9.726562 -3.90625 10.335938 -3.796875 10.984375 -3.796875 Z M 10.984375 -3.796875 "/></g></g></g><g fill="#004aad" fill-opacity="1"><g transform="translate(235.298465, 214.885795)"><g><path d="M 20.25 0 L 12.421875 0 L 11.40625 -13.5 L 11.40625 -15.640625 L 10.546875 -15.640625 L 10.546875 -13.5 L 9.546875 0 L 1.71875 0 L 0.53125 -17.796875 L 4.703125 -17.796875 L 5.484375 -4.3125 L 5.484375 -2.15625 L 6.359375 -2.15625 L 6.359375 -4.3125 L 7.25 -17.796875 L 14.71875 -17.796875 L 15.609375 -4.3125 L 15.609375 -2.15625 L 16.46875 -2.15625 L 16.46875 -4.3125 L 17.265625 -17.796875 L 21.421875 -17.796875 Z M 20.25 0 "/></g></g></g><g fill="#4c5270" fill-opacity="1"><g transform="translate(195.856369, 233.85514)"><g><path d="M 3.28125 0 L 3.96875 0 L 5.015625 -6.9375 L 5.0625 -7.390625 L 5.15625 -7.390625 L 5.15625 0 L 6.65625 0 L 6.65625 -11.03125 L 4.6875 -11.03125 L 3.71875 -5.984375 L 3.640625 -5.40625 L 3.609375 -5.40625 L 3.546875 -5.984375 L 2.578125 -11.03125 L 0.59375 -11.03125 L 0.59375 0 L 2.09375 0 L 2.09375 -7.390625 L 2.1875 -7.390625 L 2.25 -6.9375 Z M 3.28125 0 "/></g></g></g><g fill="#4c5270" fill-opacity="1"><g transform="translate(207.991363, 233.85514)"><g><path d="M 3.1875 -7.0625 L 4.8125 -7.0625 L 4.8125 -8.765625 C 4.789062 -9.210938 4.703125 -9.601562 4.546875 -9.9375 C 4.472656 -10.09375 4.382812 -10.242188 4.28125 -10.390625 C 4.175781 -10.535156 4.050781 -10.660156 3.90625 -10.765625 C 3.75 -10.878906 3.566406 -10.96875 3.359375 -11.03125 C 3.160156 -11.101562 2.925781 -11.140625 2.65625 -11.140625 C 2.382812 -11.140625 2.144531 -11.101562 1.9375 -11.03125 C 1.726562 -10.96875 1.546875 -10.878906 1.390625 -10.765625 C 1.242188 -10.660156 1.117188 -10.535156 1.015625 -10.390625 C 0.921875 -10.242188 0.835938 -10.09375 0.765625 -9.9375 C 0.609375 -9.601562 0.519531 -9.210938 0.5 -8.765625 L 0.5 -2.265625 C 0.476562 -1.816406 0.535156 -1.414062 0.671875 -1.0625 C 0.734375 -0.914062 0.8125 -0.769531 0.90625 -0.625 C 1 -0.488281 1.113281 -0.363281 1.25 -0.25 C 1.382812 -0.132812 1.546875 -0.046875 1.734375 0.015625 C 1.921875 0.0859375 2.144531 0.125 2.40625 0.125 C 2.664062 0.125 2.898438 0.0664062 3.109375 -0.046875 C 3.328125 -0.171875 3.507812 -0.332031 3.65625 -0.53125 L 3.859375 0 L 4.8125 0 L 4.8125 -5.484375 L 2.546875 -5.484375 L 2.546875 -4.125 L 3.1875 -4.125 L 3.1875 -2.125 C 3.1875 -1.945312 3.171875 -1.8125 3.140625 -1.71875 C 3.109375 -1.613281 3.050781 -1.519531 2.96875 -1.4375 C 2.894531 -1.351562 2.789062 -1.3125 2.65625 -1.3125 C 2.519531 -1.3125 2.414062 -1.351562 2.34375 -1.4375 C 2.1875 -1.601562 2.109375 -1.832031 2.109375 -2.125 L 2.109375 -8.765625 C 2.109375 -8.921875 2.128906 -9.054688 2.171875 -9.171875 C 2.203125 -9.265625 2.253906 -9.351562 2.328125 -9.4375 C 2.398438 -9.519531 2.507812 -9.5625 2.65625 -9.5625 C 2.789062 -9.5625 2.898438 -9.523438 2.984375 -9.453125 C 3.117188 -9.273438 3.1875 -9.046875 3.1875 -8.765625 Z M 3.1875 -7.0625 "/></g></g></g><g fill="#4c5270" fill-opacity="1"><g transform="translate(218.26636, 233.85514)"><g><path d="M 0.15625 0 L 1.71875 0 L 2.03125 -2.25 L 3.578125 -2.25 L 3.890625 0 L 5.453125 0 L 3.796875 -11.03125 L 1.8125 -11.03125 Z M 2.890625 -7.4375 L 3.359375 -3.953125 L 2.25 -3.953125 L 2.71875 -7.4375 L 2.765625 -7.71875 L 2.84375 -7.71875 Z M 2.890625 -7.4375 "/></g></g></g><g fill="#4c5270" fill-opacity="1"><g transform="translate(228.751356, 233.85514)"><g/></g></g><g fill="#4c5270" fill-opacity="1"><g transform="translate(235.936357, 233.85514)"><g><path d="M 2.21875 -11.03125 L 0.59375 -11.03125 L 0.59375 0 L 2.21875 0 L 2.21875 -3.90625 L 2.59375 -4.796875 L 2.6875 -5.03125 L 2.734375 -5.03125 L 2.78125 -4.796875 L 3.90625 0 L 5.46875 0 L 3.796875 -7.390625 L 5.28125 -11.03125 L 3.703125 -11.03125 L 2.359375 -7.34375 L 2.28125 -7.171875 L 2.21875 -7.171875 Z M 2.21875 -11.03125 "/></g></g></g><g fill="#4c5270" fill-opacity="1"><g transform="translate(246.436356, 233.85514)"><g><path d="M 0.15625 0 L 1.71875 0 L 2.03125 -2.25 L 3.578125 -2.25 L 3.890625 0 L 5.453125 0 L 3.796875 -11.03125 L 1.8125 -11.03125 Z M 2.890625 -7.4375 L 3.359375 -3.953125 L 2.25 -3.953125 L 2.71875 -7.4375 L 2.765625 -7.71875 L 2.84375 -7.71875 Z M 2.890625 -7.4375 "/></g></g></g><g fill="#4c5270" fill-opacity="1"><g transform="translate(256.921352, 233.85514)"><g/></g></g><g fill="#4c5270" fill-opacity="1"><g transform="translate(264.106353, 233.85514)"><g><path d="M 0.15625 0 L 1.71875 0 L 2.03125 -2.25 L 3.578125 -2.25 L 3.890625 0 L 5.453125 0 L 3.796875 -11.03125 L 1.8125 -11.03125 Z M 2.890625 -7.4375 L 3.359375 -3.953125 L 2.25 -3.953125 L 2.71875 -7.4375 L 2.765625 -7.71875 L 2.84375 -7.71875 Z M 2.890625 -7.4375 "/></g></g></g><g fill="#4c5270" fill-opacity="1"><g transform="translate(274.591349, 233.85514)"><g><path d="M 3.5 0 L 5.109375 0 L 4.078125 -5.34375 C 4.390625 -5.550781 4.617188 -5.878906 4.765625 -6.328125 C 4.910156 -6.785156 4.984375 -7.289062 4.984375 -7.84375 C 4.984375 -8.882812 4.765625 -9.675781 4.328125 -10.21875 C 3.890625 -10.757812 3.1875 -11.03125 2.21875 -11.03125 L 0.59375 -11.03125 L 0.59375 0 L 2.21875 0 L 2.21875 -4.65625 L 2.65625 -4.65625 Z M 2.21875 -6.15625 L 2.21875 -9.421875 C 2.332031 -9.421875 2.457031 -9.410156 2.59375 -9.390625 C 2.738281 -9.367188 2.867188 -9.300781 2.984375 -9.1875 C 3.109375 -9.09375 3.210938 -8.929688 3.296875 -8.703125 C 3.378906 -8.484375 3.421875 -8.175781 3.421875 -7.78125 C 3.421875 -7.394531 3.378906 -7.09375 3.296875 -6.875 C 3.210938 -6.664062 3.109375 -6.503906 2.984375 -6.390625 C 2.867188 -6.285156 2.738281 -6.21875 2.59375 -6.1875 C 2.457031 -6.164062 2.332031 -6.15625 2.21875 -6.15625 Z M 2.21875 -6.15625 "/></g></g></g><g fill="#4c5270" fill-opacity="1"><g transform="translate(284.881338, 233.85514)"><g><path d="M 2.21875 -11.03125 L 0.59375 -11.03125 L 0.59375 0 L 2.21875 0 L 2.21875 -3.90625 L 2.59375 -4.796875 L 2.6875 -5.03125 L 2.734375 -5.03125 L 2.78125 -4.796875 L 3.90625 0 L 5.46875 0 L 3.796875 -7.390625 L 5.28125 -11.03125 L 3.703125 -11.03125 L 2.359375 -7.34375 L 2.28125 -7.171875 L 2.21875 -7.171875 Z M 2.21875 -11.03125 "/></g></g></g><g fill="#4c5270" fill-opacity="1"><g transform="translate(295.381337, 233.85514)"><g><path d="M 0.59375 -11.03125 L 0.59375 0 L 4.3125 0 L 4.3125 -1.671875 L 2.21875 -1.671875 L 2.21875 -4.6875 L 3.71875 -4.6875 L 3.71875 -6.46875 L 2.21875 -6.46875 L 2.21875 -9.359375 L 4.3125 -9.359375 L 4.3125 -11.03125 Z M 0.59375 -11.03125 "/></g></g></g><g fill="#4c5270" fill-opacity="1"><g transform="translate(304.861336, 233.85514)"><g><path d="M 2.5 -7.5 L 1.6875 -11.03125 L 0.109375 -11.03125 L 1.75 -4.6875 L 1.75 0 L 3.375 0 L 3.375 -4.6875 L 5.03125 -11.03125 L 3.4375 -11.03125 L 2.625 -7.5 L 2.578125 -7.390625 L 2.546875 -7.390625 Z M 2.5 -7.5 "/></g></g></g><g fill="#4c5270" fill-opacity="1"><g transform="translate(314.866333, 233.85514)"><g><path d="M 3.28125 -8.0625 L 4.875 -8.21875 C 4.875 -8.53125 4.84375 -8.859375 4.78125 -9.203125 C 4.726562 -9.546875 4.625 -9.867188 4.46875 -10.171875 C 4.3125 -10.460938 4.082031 -10.695312 3.78125 -10.875 C 3.488281 -11.0625 3.097656 -11.148438 2.609375 -11.140625 C 2.234375 -11.128906 1.910156 -11.046875 1.640625 -10.890625 C 1.367188 -10.742188 1.144531 -10.550781 0.96875 -10.3125 C 0.800781 -10.0625 0.679688 -9.78125 0.609375 -9.46875 C 0.535156 -9.164062 0.5 -8.863281 0.5 -8.5625 C 0.5 -8.257812 0.539062 -7.96875 0.625 -7.6875 C 0.789062 -7.113281 1.054688 -6.539062 1.421875 -5.96875 C 1.597656 -5.6875 1.769531 -5.421875 1.9375 -5.171875 C 2.113281 -4.921875 2.28125 -4.679688 2.4375 -4.453125 C 2.519531 -4.347656 2.59375 -4.238281 2.65625 -4.125 C 2.726562 -4.007812 2.796875 -3.898438 2.859375 -3.796875 C 2.984375 -3.578125 3.082031 -3.363281 3.15625 -3.15625 C 3.238281 -2.945312 3.28125 -2.753906 3.28125 -2.578125 C 3.28125 -2.234375 3.226562 -1.941406 3.125 -1.703125 C 3.03125 -1.472656 2.863281 -1.359375 2.625 -1.359375 C 2.457031 -1.359375 2.320312 -1.410156 2.21875 -1.515625 C 2.113281 -1.628906 2.039062 -1.78125 2 -1.96875 C 1.9375 -2.132812 1.894531 -2.328125 1.875 -2.546875 C 1.863281 -2.773438 1.859375 -3.003906 1.859375 -3.234375 L 0.265625 -3.09375 C 0.265625 -2.675781 0.289062 -2.273438 0.34375 -1.890625 C 0.40625 -1.503906 0.515625 -1.164062 0.671875 -0.875 C 0.847656 -0.570312 1.085938 -0.328125 1.390625 -0.140625 C 1.691406 0.0351562 2.101562 0.125 2.625 0.125 C 3.0625 0.125 3.425781 0.046875 3.71875 -0.109375 C 4.007812 -0.265625 4.238281 -0.46875 4.40625 -0.71875 C 4.582031 -0.976562 4.703125 -1.269531 4.765625 -1.59375 C 4.835938 -1.925781 4.875 -2.28125 4.875 -2.65625 C 4.875 -2.957031 4.828125 -3.25 4.734375 -3.53125 C 4.648438 -3.8125 4.535156 -4.09375 4.390625 -4.375 C 4.253906 -4.65625 4.09375 -4.9375 3.90625 -5.21875 C 3.726562 -5.5 3.546875 -5.78125 3.359375 -6.0625 C 3.203125 -6.289062 3.046875 -6.515625 2.890625 -6.734375 C 2.742188 -6.953125 2.609375 -7.164062 2.484375 -7.375 C 2.367188 -7.582031 2.269531 -7.785156 2.1875 -7.984375 C 2.113281 -8.179688 2.078125 -8.375 2.078125 -8.5625 C 2.078125 -8.882812 2.117188 -9.144531 2.203125 -9.34375 C 2.285156 -9.539062 2.429688 -9.644531 2.640625 -9.65625 C 2.765625 -9.65625 2.867188 -9.609375 2.953125 -9.515625 C 3.046875 -9.421875 3.117188 -9.300781 3.171875 -9.15625 C 3.210938 -8.988281 3.238281 -8.8125 3.25 -8.625 C 3.269531 -8.4375 3.28125 -8.25 3.28125 -8.0625 Z M 3.28125 -8.0625 "/></g></g></g><g fill="#4c5270" fill-opacity="1"><g transform="translate(324.886333, 233.85514)"><g><path d="M 0.546875 -11.03125 L 0.9375 -2.96875 L 1.890625 -2.96875 L 2.296875 -11.03125 Z M 0.625 -1.671875 L 0.625 0 L 2.203125 0 L 2.203125 -1.671875 Z M 0.625 -1.671875 "/></g></g></g></svg>